<?xml version="1.0" encoding="utf-8"?>
<!-- Generator: Adobe Illustrator 23.0.0, SVG Export Plug-In . SVG Version: 6.00 Build 0)  -->
<svg version="1.1" id="图层_1" xmlns="http://www.w3.org/2000/svg" xmlns:xlink="http://www.w3.org/1999/xlink" x="0px" y="0px"
	 viewBox="0 0 150 40" style="enable-background:new 0 0 150 40;" xml:space="preserve">
<style type="text/css">
	.st0{fill:#FFFFFF;}
</style>
<g>
	<path class="st0" d="M38.48,23.8c-1.83,0-3.6,0-5.4,0c-0.48,1.73-0.94,3.44-1.84,4.97c-5.31,0-10.56,0-15.8,0
		c-0.18-0.51-0.26-15.59-0.1-17.41c0.56-0.16,14.22-0.22,15.96-0.07c1.41,2.68,2.04,5.58,2.13,8.7c1.65,0.13,3.26,0.04,4.87,0.06
		c1.59,0.01,3.18,0,4.76,0c0.48,6.74-4.45,16.39-14.91,18.65C17.3,41.03,7.58,34.07,5.39,24.22c-2.45-11.03,4.86-21.06,15-23
		c10.75-2.07,20.35,5.1,22.37,14.83c-1.41,0.13-2.8,0.04-4.16,0.06C36.01,7.29,27.12,3.33,19.68,5.65
		C12.8,7.78,8.3,14.38,9.13,21.68C10.02,29.43,16.42,34.96,24,35C31.75,35.03,37.3,29.33,38.48,23.8z M26.91,19.87
		c0.33-0.16,0.57-0.26,0.79-0.38c0.81-0.46,1.23-1.13,1.24-2.07c0.01-0.95-0.38-1.66-1.19-2.1c-0.41-0.22-0.91-0.37-1.38-0.37
		c-2.09-0.04-4.17-0.02-6.26-0.02c-0.14,0-0.3,0.03-0.43,0.04c-0.18,0.6-0.21,8.91-0.03,9.98c0.19,0.01,0.39,0.04,0.6,0.04
		c2.03,0,4.07,0,6.1,0c0.18,0,0.36,0,0.54-0.02c1.12-0.14,1.92-0.91,2.14-2.02c0.22-1.1-0.23-2.09-1.25-2.65
		C27.51,20.19,27.26,20.06,26.91,19.87z"/>
	<path class="st0" d="M105.11,5.52c0.88,0,1.64,0,2.51,0c0,1.58,0,3.13,0,4.83c0.66-0.32,1.18-0.58,1.74-0.87c0-2.01,0-3.98,0-6.01
		c0.84,0,1.59,0,2.45,0c0.07,1.53-0.02,3.06,0.06,4.71c1.12-0.56,2.11-1.07,3.16-1.61c0.48,0.3,0.97,0.62,1.46,0.94
		c0.02,0.19,0.06,0.35,0.06,0.49c0,2.48,0.02,4.94,0,7.42c-0.01,1.75-1.07,2.84-2.81,2.94c-0.14,0.01-0.3-0.03-0.49-0.06
		c-0.39-0.75-0.77-1.49-1.18-2.28c0.58-0.14,1.2,0.09,1.72-0.39c0.07-0.35,0.18-0.69,0.19-1.04c0.02-1.49,0.01-2.99,0.01-4.48
		c0-0.1-0.04-0.2-0.09-0.41c-0.38,0.18-0.71,0.33-1.04,0.5c-0.32,0.17-0.62,0.35-1.03,0.56c0,3.02,0,6.08,0,9.19
		c-0.85,0-1.61,0-2.45,0c-0.11-2.54,0.04-5.13-0.09-7.84c-0.61,0.31-1.1,0.57-1.62,0.83c-0.02,0.23-0.06,0.43-0.06,0.64
		c0,2.22-0.01,4.43,0,6.65c0,1.12,0.3,1.43,1.42,1.44c1.44,0.01,2.89,0,4.33,0.01c0.87,0.01,1.56-0.26,1.9-1.14
		c0.17-0.42,0.39-0.83,0.62-1.34c0.8,0.41,1.58,0.81,2.4,1.23c-0.26,0.87-0.51,1.67-1.04,2.35c-0.56,0.72-1.28,1.19-2.22,1.23
		c-0.69,0.02-1.39,0.02-2.09,0.02c-1.7,0-3.4-0.03-5.1,0.01c-1.55,0.04-2.72-1.19-2.72-2.46c0-0.31-0.06-0.61-0.06-0.93
		c0-1.85,0-3.7,0-5.57c0-0.2-0.02-0.4-0.04-0.7c-0.51,0.23-0.97,0.45-1.47,0.68c-0.25-0.76-0.48-1.46-0.74-2.23
		c0.74-0.39,1.45-0.77,2.26-1.2c0-0.99,0-2.02,0-3.04C105.11,7.59,105.11,6.6,105.11,5.52z"/>
	<path class="st0" d="M141.96,21.93c-0.55,0.72-1.04,1.37-1.55,2.05c-1.15-0.59-2.06-1.39-2.9-2.3c-0.83-0.89-1.46-1.91-2.04-3.16
		c-0.78,1.29-1.48,2.46-2.49,3.42c-1.01,0.97-2.13,1.76-3.45,2.35c-0.49-0.68-0.97-1.35-1.51-2.07c0.21-0.12,0.39-0.26,0.59-0.33
		c2.03-0.87,3.48-2.32,4.42-4.31c0.33-0.72,0.6-1.47,0.68-2.35c-1.35,0-2.68,0-4.08,0c0-0.72,0-1.38,0-2.14c1.37,0,2.8,0,4.27,0
		c0-1.23,0-2.34,0-3.54c-0.56,0-1.12,0-1.72,0c-0.43,0.89-0.9,1.83-1.42,2.89c-0.67-0.69-1.24-1.29-1.84-1.91
		c1.03-1.85,1.67-3.78,1.65-5.99c0.85,0.16,1.61,0.29,2.45,0.43c-0.09,0.84-0.18,1.58-0.27,2.39c0.41,0,0.76,0,1.17,0
		c0-1.3,0-2.55,0-3.87c0.87-0.17,1.67-0.04,2.53-0.08c0,1.34,0,2.6,0,3.94c1.26,0.17,2.49-0.01,3.74,0.11
		c0.17,0.65,0.09,1.27,0.04,2c-1.22,0-2.41,0-3.58,0c-0.21,0.65-0.23,2.74-0.04,3.58c1.46,0,2.93,0,4.47,0c0,0.74,0,1.39,0,2.13
		c-1.39,0-2.77,0-4.26,0C137.44,18.35,139.26,20.42,141.96,21.93z"/>
	<path class="st0" d="M90.93,9.26c0,2.4,0,4.71,0,7.12c-1.96,0-3.9,0-5.91,0c-0.02,0.37-0.04,0.65-0.04,0.93c0,1.42,0,2.83,0,4.25
		c0,0.85-0.29,1.54-0.91,2.13c-0.38,0.37-0.85,0.51-1.32,0.56c-0.74,0.06-1.48,0.01-2.28,0.01c-0.28-0.81-0.56-1.63-0.89-2.58
		c0.47,0,0.79,0.01,1.12,0c0.96-0.02,1.32-0.38,1.32-1.3c0-1.28,0-2.57,0-3.96c-2.12-0.07-4.19,0-6.3-0.04c0-2.39,0-4.72,0-7.1
		C80.76,9.26,85.81,9.26,90.93,9.26z M78.69,14.09c3.11,0,6.13,0,9.23,0c0-0.87,0-1.71,0-2.57c-3.1,0-6.13,0-9.23,0
		C78.69,12.39,78.69,13.2,78.69,14.09z"/>
	<path class="st0" d="M62.82,10.8c1.05-0.58,1.76-1.27,2.48-1.97c0.69-0.68,1.34-1.41,2.05-2.15c0.7,0.65,1.39,1.28,2.12,1.94
		c-1.84,2.32-4.17,3.99-6.64,5.57c0,0.29,0,0.58,0,0.86c0,1.73-0.01,3.45,0,5.17c0.01,1.09,0.29,1.36,1.38,1.37
		c1.72,0.02,2.02-0.22,2.41-1.91c0.08-0.32,0.14-0.66,0.2-0.98c0.06-0.32,0.11-0.64,0.17-1.01c0.69,0.21,1.29,0.4,1.9,0.6
		c0.29,0.1,0.57,0.22,0.87,0.35c-0.09,1.45-0.35,2.82-1.04,4.08c-0.48,0.87-1.24,1.42-2.23,1.45c-1.42,0.06-2.83,0.07-4.24,0
		c-1.28-0.07-2.39-1.42-2.36-2.55c0.01-0.65-0.01-1.28-0.01-1.93c0-5.1,0-10.19,0-15.29c0-0.3,0-0.61,0-0.97c0.98,0,1.9,0,2.9,0
		C62.87,4.2,62.81,5,62.82,5.78c0.01,0.83,0,1.65,0.01,2.46C62.82,9.03,62.82,9.83,62.82,10.8z"/>
	<path class="st0" d="M48.78,18.61c1.92-0.65,3.71-1.25,5.55-1.87c0-1.65,0-3.26,0-4.99c-1.71-0.07-3.39,0-5.16-0.04
		c-0.08-0.89-0.03-1.75-0.02-2.7c1.74,0,3.44,0,5.23,0c0-1.9,0-3.7,0-5.54c1.05,0,1.99,0,2.97,0c0,6.91,0,13.79,0,20.64
		c-0.57,0.17-1.93,0.2-2.93,0.06c-0.01-1.43-0.02-2.88-0.03-4.42c-1.61,0.56-3.08,1.07-4.62,1.59
		C49.44,20.45,49.12,19.57,48.78,18.61z"/>
	<path class="st0" d="M126.34,19.96c0.98-0.56,1.81-1.03,2.72-1.55c0.1,0.86,0.18,1.61,0.27,2.4c-1.68,0.97-3.32,1.92-5.04,2.92
		c-0.33-0.66-0.64-1.27-1-2c0.14-0.09,0.31-0.2,0.46-0.3c0-1.49,0-2.96,0-4.52c-0.83,0-1.61,0-2.43,0c0-0.71,0-1.32,0-2.03
		c0.8,0,1.58,0,2.42,0c0-0.89,0-1.67,0-2.48c-0.31-0.02-0.59-0.06-0.89-0.08c-0.08-0.11-0.17-0.22-0.31-0.42
		c-0.35,0.39-0.68,0.77-1.1,1.26c-0.36-0.86-0.65-1.58-0.97-2.39c1.78-2.17,2.8-4.74,3.47-7.54c0.84,0.23,1.62,0.45,2.44,0.68
		c-0.25,0.9-0.48,1.72-0.72,2.62c1.14,0,2.25,0,3.41,0c0,0.75,0,1.41,0,2.12c-1.45,0-2.88,0-4.34,0c-0.29,0.5-0.56,0.96-0.89,1.54
		c1.61,0.13,3.1,0,4.66,0.09c0,0.66,0,1.32,0,2.05c-0.67,0-1.33,0-2.05,0c0,0.86,0,1.64,0,2.5c0.78,0,1.54,0,2.35,0
		c0,0.7,0,1.34,0,2.04c-0.77,0-1.53,0-2.38,0C126.28,17.92,126.35,18.88,126.34,19.96z"/>
	<path class="st0" d="M99.57,11.05c-0.83,0-1.56,0-2.35,0c-0.17-0.78-0.02-1.49-0.09-2.31c0.83,0,1.61,0,2.45,0
		c0-1.44,0-2.77,0-4.17c0.89-0.12,1.73-0.06,2.63-0.06c0,1.39,0,2.72,0,4.15c0.72,0,1.37,0,2.1,0c0,0.81,0,1.55,0,2.35
		c-0.68,0-1.32,0-1.92,0c-0.19,0.61-0.22,6.27-0.06,7.19c0.66-0.18,1.32-0.36,2.03-0.56c0,0.88,0,1.7,0,2.61
		c-2.13,0.67-4.31,1.34-6.54,2.04c-0.19-0.85-0.36-1.62-0.55-2.46c0.79-0.27,1.53-0.51,2.31-0.77
		C99.57,16.42,99.57,13.81,99.57,11.05z"/>
	<path class="st0" d="M82.18,5.48c-0.46-0.75-0.83-1.35-1.24-2.03c0.86-0.38,1.7-0.74,2.58-1.13c0.61,0.84,1.19,1.64,1.81,2.48
		c-0.3,0.21-0.54,0.39-0.93,0.67c3.09,0,5.98,0,8.96,0c0.09,0.76,0.02,1.47,0.04,2.3c-6.73,0.01-13.39,0.01-20.19,0
		c0-0.38-0.01-0.72-0.01-1.07c0-0.36,0-0.71,0-1.18c0.76-0.07,1.49-0.02,2.23-0.03c0.75-0.01,1.49,0,2.24,0c0.72,0,1.44,0,2.16,0
		C80.57,5.48,81.3,5.48,82.18,5.48z"/>
	<path class="st0" d="M123.53,31.36c-0.46,1.78-0.91,3.56-1.39,5.4c-0.59,0-1.17,0-1.84,0c-0.55-2.43-1.1-4.91-1.67-7.42
		c0.56-0.21,1.07-0.14,1.64-0.06c0.3,1.76,0.6,3.49,0.93,5.41c0.49-0.95,0.56-1.86,0.79-2.72c0.25-0.89,0.46-1.78,0.69-2.73
		c0.59,0,1.15,0,1.82,0c0.45,1.77,0.91,3.59,1.38,5.42c0.03,0,0.08-0.01,0.11-0.01c0.31-1.77,0.61-3.55,0.94-5.39c0.51,0,1,0,1.52,0
		c0.06,0.47-1.23,6.48-1.61,7.49c-0.56,0-1.14,0-1.78,0c-0.23-0.9-0.47-1.82-0.7-2.73c-0.22-0.89-0.46-1.78-0.68-2.68
		C123.62,31.36,123.57,31.36,123.53,31.36z"/>
	<path class="st0" d="M76.92,36.77c-0.55,0-0.98,0-1.41,0c-0.16-0.5-0.19-6.58-0.03-7.49c0.54,0,1.09,0,1.71,0
		c1.18,1.71,2.31,3.5,3.66,5.15c0-1.68,0-3.38,0-5.13c0.47,0,0.9,0,1.41,0c0,2.49,0,4.96,0,7.48c-0.54,0-1.04,0-1.59,0
		c-1.19-1.77-2.42-3.57-3.74-5.52C76.92,33.17,76.92,34.92,76.92,36.77z"/>
	<path class="st0" d="M49.16,36.8c0-2.55,0-5.01,0-7.52c0.2-0.02,0.37-0.07,0.54-0.07c0.98,0.01,1.95,0,2.93,0.04
		c0.32,0.01,0.65,0.14,0.96,0.25c1.23,0.42,1.2,2.2,0.27,2.75c-0.21,0.13-0.42,0.28-0.65,0.43c0.33,0.16,0.66,0.26,0.93,0.43
		c1.23,0.81,0.86,2.7-0.32,3.25c-0.41,0.19-0.87,0.37-1.32,0.39C51.4,36.84,50.32,36.8,49.16,36.8z M50.78,35.59
		c0.55,0,1.04,0.06,1.52-0.01c0.58-0.08,0.85-0.45,0.87-0.99c0.03-0.58-0.18-0.87-0.79-1.04c-0.52-0.14-1.05-0.18-1.59,0.01
		C50.78,34.23,50.78,34.9,50.78,35.59z M50.81,30.32c0,0.74,0,1.34,0,2.03c0.47-0.03,0.87-0.01,1.26-0.09c0.51-0.1,0.78-0.5,0.77-1
		c-0.01-0.46-0.21-0.72-0.75-0.84C51.7,30.34,51.29,30.35,50.81,30.32z"/>
	<path class="st0" d="M111.87,29.23c1.3-0.01,2.57-0.14,3.8,0.08c0.96,0.18,1.65,0.8,1.52,1.88c-0.07,0.51-0.4,0.81-0.76,1.12
		c-0.17,0.14-0.36,0.26-0.61,0.42c0.19,0.06,0.29,0.09,0.38,0.12c0.87,0.32,1.32,0.87,1.33,1.7c0.01,0.89-0.42,1.53-1.2,1.9
		c-0.37,0.18-0.78,0.3-1.18,0.31c-1.07,0.04-2.15,0.01-3.27,0.01C111.87,34.26,111.87,31.8,111.87,29.23z M113.43,35.6
		c0.55,0,1,0.03,1.46-0.01c0.54-0.06,0.89-0.46,0.95-0.96c0.06-0.47-0.26-0.91-0.79-1.08c-0.52-0.17-1.05-0.16-1.62-0.02
		C113.43,34.22,113.43,34.87,113.43,35.6z M113.45,32.22c0.7,0.16,1.16,0.13,1.55-0.07c0.38-0.2,0.58-0.55,0.54-0.94
		c-0.03-0.41-0.27-0.72-0.7-0.8c-0.43-0.08-0.89-0.07-1.38-0.09C113.45,31.04,113.45,31.64,113.45,32.22z"/>
	<path class="st0" d="M89.36,35.34c0-0.5,0-0.97,0-1.52c-0.51-0.03-0.99-0.07-1.53-0.1c0-0.37,0-0.71,0-1.16
		c0.48-0.01,0.98-0.03,1.48-0.03c0.51-0.01,1.03,0,1.59,0c0,1.26,0,2.49,0,3.78c-0.98,0.54-2.07,0.77-3.21,0.6
		c-0.58-0.08-1.14-0.28-1.68-0.49c-0.7-0.27-1.18-0.81-1.48-1.49c-1.12-2.59,0.22-5.62,3.44-5.81c0.54-0.03,1.08,0,1.62,0.04
		c0.32,0.02,0.65,0.12,1.01,0.19c0,0.49,0,0.94,0,1.34c-0.72-0.12-1.42-0.28-2.13-0.33c-0.78-0.06-1.46,0.26-2,0.84
		c-0.88,0.95-0.89,2.73-0.02,3.69C87.09,35.62,88.25,35.82,89.36,35.34z"/>
	<path class="st0" d="M108.66,29.25c0.51,0,0.99,0,1.52,0c0.02,0.26,0.04,0.46,0.04,0.66c-0.02,1.42,0.03,2.83-0.1,4.24
		c-0.19,2.01-1.56,3.02-3.58,2.8c-1.62-0.18-2.61-1.15-2.68-2.75c-0.07-1.57-0.03-3.13-0.03-4.71c0-0.07,0.04-0.14,0.07-0.23
		c0.49,0,0.97,0,1.51,0c0.02,0.23,0.04,0.43,0.04,0.64c0,1.24,0,2.48,0,3.7c0,0.26,0,0.52,0.06,0.77c0.22,1,0.64,1.18,1.45,1.22
		c0.89,0.03,1.34-0.26,1.53-1.09c0.09-0.37,0.11-0.76,0.12-1.14c0.01-1.28,0.01-2.58,0.01-3.86
		C108.62,29.43,108.64,29.38,108.66,29.25z"/>
	<path class="st0" d="M131.26,29.27c0.65,0,1.26,0,1.96,0c0.9,2.46,1.83,4.96,2.77,7.52c-0.59,0-1.1,0-1.68,0
		c-0.21-0.55-0.43-1.12-0.66-1.7c-0.97,0-1.92,0-2.92,0c-0.19,0.56-0.38,1.1-0.58,1.68c-0.55,0-1.07,0-1.71,0
		C129.37,34.27,130.3,31.81,131.26,29.27z M132.26,30.76c-0.47,1.01-0.89,2-1.14,3.1c0.76,0,1.41,0,2.15,0
		C132.93,32.78,132.6,31.76,132.26,30.76z"/>
	<path class="st0" d="M102.21,29.33c0,0.5,0,0.9,0,1.36c-1.18-0.32-2.36-0.87-3.36,0.23c-0.02,0.72,0.45,0.94,0.88,1.16
		c0.46,0.22,0.95,0.4,1.42,0.61c0.23,0.11,0.45,0.25,0.66,0.39c1.51,1.07,0.9,2.99-0.46,3.54c-0.83,0.33-1.7,0.41-2.58,0.29
		c-0.52-0.08-1.05-0.21-1.59-0.33c0-0.52,0-0.97,0-1.41c0.62,0.17,1.22,0.37,1.82,0.46c0.39,0.06,0.81,0.01,1.2-0.08
		c0.35-0.08,0.58-0.35,0.62-0.71c0.06-0.37-0.12-0.66-0.45-0.83c-0.43-0.22-0.88-0.41-1.33-0.62c-0.37-0.18-0.74-0.36-1.08-0.57
		c-0.79-0.48-0.95-1.23-0.81-2.07c0.12-0.79,0.67-1.24,1.35-1.44C99.71,28.98,100.93,29.02,102.21,29.33z"/>
	<path class="st0" d="M78.45,16.74c0.75,0.61,1.42,1.16,2.13,1.75c-1.66,2.3-3.73,4.06-6.13,5.61c-0.54-0.79-1.05-1.55-1.61-2.35
		C75,20.39,76.88,18.81,78.45,16.74z"/>
	<path class="st0" d="M61.15,36.78c-1.53,0-2.97,0-4.45,0c0-2.51,0-4.99,0-7.52c1.42,0,2.8,0,4.25,0c0,0.37,0,0.74,0,1.18
		c-0.88,0-1.75,0-2.69,0c0,0.65,0,1.22,0,1.88c0.83,0,1.64,0,2.51,0c0,0.43,0,0.78,0,1.24c-0.81,0-1.64,0-2.52,0
		c0,0.69,0,1.27,0,1.94c0.96,0,1.92,0,2.91,0C61.15,35.96,61.15,36.34,61.15,36.78z"/>
	<path class="st0" d="M85.86,18.67c0.72-0.6,1.38-1.15,2.1-1.75c1.77,1.65,3.54,3.29,5.33,4.96c-0.66,0.75-1.26,1.43-1.94,2.19
		C89.51,22.25,87.72,20.49,85.86,18.67z"/>
	<path class="st0" d="M135.32,29.23c0.67,0,1.2,0,1.81,0c0.26,0.56,0.52,1.12,0.77,1.66c0.25,0.56,0.49,1.12,0.77,1.76
		c0.29-0.62,0.54-1.18,0.79-1.73c0.26-0.56,0.52-1.12,0.8-1.7c0.54,0,1.04,0,1.64,0c-0.14,0.27-0.25,0.48-0.36,0.69
		c-0.61,1.18-1.26,2.35-1.84,3.56c-0.2,0.42-0.28,0.93-0.31,1.41c-0.06,0.6-0.01,1.22-0.01,1.87c-0.52,0-1,0-1.58,0
		c0-0.71,0.03-1.39-0.01-2.07c-0.02-0.37-0.11-0.76-0.27-1.09C136.82,32.18,136.09,30.76,135.32,29.23z"/>
	<path class="st0" d="M66,36.69c-0.01-0.16-0.03-0.33-0.03-0.5c-0.01-0.22,0-0.46,0-0.74c0.23,0.03,0.41,0.06,0.57,0.09
		c0.91,0.18,1.51-0.26,1.57-1.19c0.04-0.59,0.02-1.18,0.03-1.77c0-1.07,0-2.15,0-3.29c0.56,0,1.05,0,1.59,0
		c0.01,0.14,0.03,0.29,0.03,0.43c0,1.32,0,2.62-0.01,3.94c0,0.33-0.03,0.67-0.08,0.99C69.38,36.53,67.83,37.41,66,36.69z"/>
	<path class="st0" d="M62.83,29.25c0.55,0,1,0,1.49,0c0,2.51,0,4.99,0,7.52c-0.47,0-0.93,0-1.48,0
		C62.81,34.3,62.83,31.8,62.83,29.25z"/>
	<path class="st0" d="M73.32,29.29c0,2.53,0,4.99,0,7.49c-0.49,0-0.94,0-1.39,0c-0.17-0.48-0.22-6.27-0.07-7.44
		C72.3,29.13,72.77,29.22,73.32,29.29z"/>
</g>
</svg>
