<?xml version="1.0" encoding="utf-8"?>
<!-- Generator: Adobe Illustrator 23.0.0, SVG Export Plug-In . SVG Version: 6.00 Build 0)  -->
<svg version="1.1" id="图层_1" xmlns="http://www.w3.org/2000/svg" xmlns:xlink="http://www.w3.org/1999/xlink" x="0px" y="0px"
	 viewBox="0 0 113.2 40" style="enable-background:new 0 0 113.2 40;" xml:space="preserve">
<style type="text/css">
	.st0{fill:#FFFFFF;}
</style>
<g>
	<path class="st0" d="M84.87,29.55c-3.19,0-6.31,0-9.52,0c0,1.3,0,2.47,0,3.68c3.19,0,6.33,0,9.52,0
		C84.87,31.99,84.87,30.8,84.87,29.55z"/>
	<path class="st0" d="M64.19,10.31c1,0,1.89,0,2.83,0c0,1.6,0,3.13,0,4.67c-0.3,0.06-0.55,0.11-0.83,0.17c0,1.22,0,2.41,0,3.62
		c0.31,0.07,0.56,0.12,0.82,0.18c0,2.52,0,5.02,0,7.56c-0.63,0.04-1.19,0.08-1.77,0.13c0,1.3,0,2.51,0,3.7
		c0.88,0.25,5.23,0.14,5.64-0.15c0-7.86,0-15.74,0-23.67c-3.52,0-6.98,0-10.49,0c0,9.28,0,18.45,0,27.67c1.28,0,2.49,0,3.8,0
		C64.19,26.2,64.19,18.29,64.19,10.31z"/>
	<path class="st0" d="M44.47,26.84c0.13-0.05,0.28-0.11,0.57-0.23c0,2.58,0,5.05,0,7.58c4.49,0,8.86,0,13.31,0c0-4.5,0-8.9,0-13.4
		c-2.57,0-5.06,0-7.71,0c0.56-0.58,1-1.01,1.41-1.48c0.29-0.34,0.63-0.45,1.06-0.45c1.81,0.02,3.61,0.01,5.42,0
		c0.24,0,0.47-0.04,0.76-0.06c0-1.24,0-2.42,0-3.74c-0.93,0-1.82,0-2.7,0c-0.01-0.06-0.03-0.13-0.04-0.19
		c0.92-0.94,1.85-1.87,2.7-2.74c-0.91-0.91-1.77-1.77-2.68-2.68c-0.59,0.57-1.22,1.18-1.85,1.79c-0.06-0.03-0.11-0.06-0.17-0.09
		c0-0.9,0-1.8,0-2.8c-0.97,0-1.85,0-2.85,0c0-1,0-1.9,0-2.87c-1.31,0-2.5,0-3.81,0c0,0.95,0,1.85,0,2.87c-1.3,0-2.49,0-3.74,0
		c0,1.31,0,2.5,0,3.81c1.28,0,2.49,0,3.69,0c0,1.01,0,1.9,0,2.89c-1.91,0-3.77,0-5.62,0c0,1.31,0,2.5,0,3.84c1.59,0,3.1,0,4.62,0
		c0.01,0.07,0.03,0.13,0.04,0.2c-1.7,1.71-3.39,3.41-5.06,5.09C42.75,25.11,43.61,25.97,44.47,26.84z M51.78,12.19
		c0.64,0,1.22,0,1.88,0c-0.64,0.65-1.2,1.22-1.88,1.91C51.78,13.4,51.78,12.83,51.78,12.19z M48.89,24.72c1.88,0,3.74,0,5.68,0
		c0,0.3,0,0.53,0,0.83c-1.9,0-3.76,0-5.68,0C48.89,25.28,48.89,25.04,48.89,24.72z M48.88,29.48c1.9,0,3.75,0,5.67,0
		c0,0.32,0,0.58,0,0.87c-1.92,0-3.78,0-5.74,0C48.84,30.01,48.86,29.78,48.88,29.48z"/>
	<path class="st0" d="M75.87,21.56c-0.35,0.34-0.52,0.71-0.51,1.21c0.02,1.33,0.01,2.67,0.01,4c0,0.22,0.05,0.44,0.07,0.69
		c3.17,0,6.27,0,9.41,0c0-1.26,0-2.45,0-3.77c-1.87,0-3.66,0-5.59,0c0.18-0.24,0.24-0.35,0.32-0.43c1.57-1.57,3.13-3.16,4.72-4.71
		c0.43-0.42,0.67-0.85,0.63-1.47c-0.05-0.73,0-1.47-0.01-2.21c0-0.2-0.04-0.41-0.08-0.73c-1.84,0-3.64,0-5.45,0
		c-0.02-0.07-0.05-0.13-0.07-0.2c1.83-1.84,3.66-3.68,5.5-5.54c-0.94-0.9-1.82-1.73-2.73-2.61c-0.01,0.01-0.14,0.08-0.23,0.18
		c-2.06,2.06-4.12,4.11-6.15,6.19c-0.21,0.21-0.33,0.59-0.34,0.89c-0.03,1.4-0.02,2.81-0.01,4.21c0,0.2,0.06,0.4,0.1,0.68
		c1.28,0,2.51,0,3.75,0c0.02,0.06,0.05,0.12,0.07,0.18c-0.12,0.14-0.23,0.29-0.36,0.42C77.92,19.54,76.91,20.56,75.87,21.56z"/>
	<path class="st0" d="M96.63,28.32c0.35,0.38,0.63,0.69,1.01,1.12c-1.85,0-3.52,0-5.22,0c0.05-0.14,0.05-0.2,0.09-0.23
		c1.36-1.39,2.72-2.79,4.11-4.14c0.24-0.24,0.67-0.39,1.02-0.4c1.86-0.04,3.72-0.01,5.58-0.02c0.27,0,0.53-0.06,0.82-0.1
		c0-1.28,0-2.47,0-3.7c-5.74,0-11.41,0-17.12,0c0,1.28,0,2.49,0,3.82c1.52,0,2.99,0,4.46,0c0.01,0.05,0.02,0.11,0.04,0.16
		c-0.12,0.14-0.24,0.29-0.37,0.42c-1.26,1.27-2.53,2.52-3.77,3.81c-0.2,0.21-0.36,0.53-0.38,0.81c-0.05,0.98-0.03,1.96-0.03,2.95
		c0,0.13,0.06,0.26,0.11,0.46c1.04,0,2.05,0,3.07,0c3.65,0,7.3-0.01,10.95,0.01c0.31,0,0.65,0.19,0.92,0.38
		c0.36,0.25,0.66,0.59,0.94,0.84c0.93-0.92,1.79-1.76,2.69-2.65c-2.05-2.06-4.1-4.12-6.2-6.23C98.38,26.59,97.52,27.44,96.63,28.32z
		"/>
	<path class="st0" d="M89.59,16.82c0.05,0.03,0.09,0.06,0.14,0.08c0,0.6,0,1.21,0,1.89c3.85,0,7.6,0,11.4,0
		c0.03-0.68,0.07-1.3,0.1-2.06c0.45,0.39,0.77,0.66,1.12,0.97c0.89-0.91,1.74-1.78,2.56-2.62c-3.16-3.16-6.32-6.32-9.42-9.42
		c-3.15,3.14-6.31,6.29-9.45,9.4c0.83,0.87,1.68,1.75,2.52,2.63C88.96,17.36,89.27,17.09,89.59,16.82z M95.54,10.91
		c1.3,1.35,2.59,2.69,3.94,4.1c-2.68,0-5.31,0-7.96,0C92.86,13.64,94.15,12.33,95.54,10.91z"/>
	<path class="st0" d="M11.81,32.21c1.3,0,2.5,0,3.88,0c0-2.58,0-5.05,0-7.5c1.94,0,3.75,0,5.68,0c0,3.2,0,6.33,0,9.47
		c1.33,0,2.54,0,3.88,0c0-3.19,0-6.31,0-9.48c1.96,0,3.79,0,5.7,0c0,1.27,0,2.51,0,3.84c-0.96,0-1.86,0-2.79,0c0,1.27,0,2.44,0,3.68
		c2.22,0,4.37,0,6.65,0c0-3.81,0-7.55,0-11.38c1,0,1.88,0,2.78,0c0-1.94,0-3.78,0-5.74c-2.22,0-4.39,0-6.59,0c0-1.02,0-1.92,0-2.94
		c1.94,0,3.82,0,5.74,0c0-1.3,0-2.48,0-3.79c-3.84,0-7.63,0-11.53,0c0-1.04,0-1.93,0-2.87c-1.33,0-2.54,0-3.86,0
		c0,0.96,0,1.85,0,2.89c-3.86,0-7.62,0-11.41,0c0,1.31,0,2.49,0,3.77c1.93,0,3.79,0,5.69,0c0,1.02,0,1.94,0,2.96
		c-2.23,0-4.41,0-6.64,0c0,1.94,0,3.76,0,5.7c0.94,0,1.84,0,2.82,0C11.81,24.65,11.81,28.4,11.81,32.21z M33.81,18.93
		c0,0.61,0,1.2,0,1.85c-2.86,0-5.67,0-8.53,0c0-0.65,0-1.21,0-1.85C28.12,18.93,30.92,18.93,33.81,18.93z M19.52,12.21
		c2.54,0,5.02,0,7.57,0c0,0.96,0,1.85,0,2.81c-2.52,0-5.01,0-7.57,0C19.52,14.06,19.52,13.15,19.52,12.21z M12.78,18.93
		c2.88,0,5.68,0,8.53,0c0,0.63,0,1.19,0,1.82c-2.85,0-5.64,0-8.53,0C12.78,20.13,12.78,19.55,12.78,18.93z"/>
</g>
</svg>
