<?xml version="1.0" encoding="utf-8"?>
<!-- Generator: Adobe Illustrator 23.0.0, SVG Export Plug-In . SVG Version: 6.00 Build 0)  -->
<svg version="1.1" id="图层_1" xmlns="http://www.w3.org/2000/svg" xmlns:xlink="http://www.w3.org/1999/xlink" x="0px" y="0px"
	 viewBox="0 0 150 40" style="enable-background:new 0 0 150 40;" xml:space="preserve">
<style type="text/css">
	.st0{fill:#FFFFFF;}
	.st1{fill-rule:evenodd;clip-rule:evenodd;fill:#FFFFFF;}
</style>
<g>
	<path class="st0" d="M65.5,18.44h-8.15c-0.21,0-0.38,0.17-0.38,0.38v3.98c0,0.21,0.17,0.38,0.38,0.38h3.18v4.95
		c0,0-0.71,0.24-2.69,0.24c-2.33,0-5.58-0.85-5.58-8s3.39-8.09,6.56-8.09c2.75,0,3.94,0.48,4.69,0.72c0.24,0.07,0.46-0.16,0.46-0.37
		l0.91-3.85c0-0.1-0.03-0.22-0.15-0.3c-0.31-0.22-2.18-1.26-6.9-1.26c-5.44,0-11.02,2.31-11.02,13.44
		c0,11.12,6.39,12.78,11.77,12.78c4.46,0,7.16-1.9,7.16-1.9c0.11-0.06,0.12-0.22,0.12-0.29V18.82
		C65.88,18.61,65.71,18.44,65.5,18.44z"/>
	<path class="st0" d="M107.49,8.55c0-0.21-0.17-0.38-0.38-0.38h-4.59c-0.21,0-0.38,0.17-0.38,0.38v8.87h-7.15V8.55
		c0-0.21-0.17-0.38-0.38-0.38h-4.59c-0.21,0-0.38,0.17-0.38,0.38v24c0,0.21,0.17,0.38,0.38,0.38h4.59c0.21,0,0.38-0.17,0.38-0.38
		V22.29h7.15l-0.01,10.27c0,0.21,0.17,0.38,0.38,0.38h4.6c0.21,0,0.38-0.17,0.38-0.38C107.49,32.56,107.49,8.55,107.49,8.55z"/>
	<g>
		<g>
			<path class="st0" d="M74.16,11.7c0-1.65-1.32-2.99-2.96-2.99c-1.63,0-2.96,1.33-2.96,2.99c0,1.65,1.33,2.99,2.96,2.99
				S74.16,13.35,74.16,11.7z"/>
			<path class="st0" d="M73.83,27.49c0-0.62,0-11.08,0-11.08c0-0.21-0.17-0.38-0.38-0.38h-4.57c-0.21,0-0.4,0.22-0.4,0.43
				c0,0,0,13.33,0,15.88c0,0.47,0.29,0.61,0.67,0.61c0,0,1.95,0,4.12,0c0.45,0,0.56-0.22,0.56-0.61
				C73.83,31.48,73.83,28.14,73.83,27.49z"/>
		</g>
	</g>
	<path class="st0" d="M124.92,16.07h-4.55c-0.21,0-0.38,0.17-0.38,0.38v11.77c0,0-1.16,0.85-2.8,0.85s-2.08-0.74-2.08-2.35
		s0-10.26,0-10.26c0-0.21-0.17-0.38-0.38-0.38h-4.62c-0.21,0-0.38,0.17-0.38,0.38c0,0,0,6.27,0,11.04s2.66,5.94,6.32,5.94
		c3,0,5.42-1.66,5.42-1.66s0.12,0.87,0.17,0.98c0.05,0.1,0.19,0.21,0.33,0.21l2.94-0.01c0.21,0,0.38-0.17,0.38-0.38V16.47
		C125.3,16.24,125.13,16.07,124.92,16.07z"/>
	<path class="st0" d="M137.36,15.53c-2.59,0-4.34,1.15-4.34,1.15V8.55c0-0.21-0.17-0.38-0.38-0.38h-4.6c-0.21,0-0.38,0.17-0.38,0.38
		v24c0,0.21,0.17,0.38,0.38,0.38h3.19c0.14,0,0.25-0.07,0.33-0.2s0.19-1.11,0.19-1.11s1.88,1.78,5.44,1.78
		c4.18,0,6.58-2.12,6.58-9.52C143.78,16.5,139.95,15.53,137.36,15.53z M135.57,29.05c-1.58-0.05-2.65-0.76-2.65-0.76v-7.6
		c0,0,1.06-0.65,2.35-0.76c1.64-0.15,3.22,0.35,3.22,4.26C138.49,28.31,137.78,29.12,135.57,29.05z"/>
	<path class="st0" d="M87.01,16.03h-3.44l-0.01-4.55c0-0.17-0.09-0.26-0.29-0.26h-4.69c-0.18,0-0.28,0.08-0.28,0.26v4.7
		c0,0-2.35,0.57-2.51,0.61c-0.16,0.05-0.27,0.19-0.27,0.37v2.95c0,0.21,0.17,0.38,0.38,0.38h2.4c0,0,0,3.09,0,7.1
		c0,5.27,3.7,5.79,6.2,5.79c1.14,0,2.51-0.37,2.73-0.45c0.14-0.05,0.22-0.19,0.22-0.34v-3.25c0-0.21-0.18-0.38-0.38-0.38
		s-0.71,0.08-1.24,0.08c-1.69,0-2.26-0.79-2.26-1.8c0-1.02,0-6.75,0-6.75h3.44c0.21,0,0.38-0.17,0.38-0.38v-3.7
		C87.39,16.2,87.22,16.03,87.01,16.03z"/>
</g>
<path class="st1" d="M23.05,3.07c-9.3,0-16.83,7.54-16.83,16.84c0,7.44,4.82,13.75,11.51,15.97c0.84,0.15,1.15-0.37,1.15-0.81
	c0-0.4-0.01-1.46-0.02-2.86c-4.68,1.02-5.67-2.26-5.67-2.26c-0.77-1.94-1.87-2.46-1.87-2.46c-1.53-1.04,0.12-1.02,0.12-1.02
	c1.69,0.12,2.58,1.73,2.58,1.73c1.5,2.57,3.94,1.83,4.9,1.4c0.15-1.09,0.59-1.83,1.07-2.25c-3.74-0.42-7.67-1.87-7.67-8.32
	c0-1.84,0.66-3.34,1.73-4.52c-0.17-0.43-0.75-2.14,0.17-4.46c0,0,1.41-0.45,4.63,1.73c1.34-0.37,2.78-0.56,4.21-0.57
	c1.43,0.01,2.87,0.19,4.21,0.57c3.21-2.18,4.63-1.73,4.63-1.73c0.92,2.32,0.34,4.03,0.17,4.46c1.08,1.18,1.73,2.68,1.73,4.52
	c0,6.47-3.94,7.89-7.69,8.31c0.6,0.52,1.14,1.55,1.14,3.12c0,2.25-0.02,4.07-0.02,4.62c0,0.45,0.3,0.97,1.16,0.81
	c6.68-2.23,11.5-8.54,11.5-15.97C39.89,10.61,32.35,3.07,23.05,3.07z"/>
</svg>
